<svg xmlns="http://www.w3.org/2000/svg" xmlns:xlink="http://www.w3.org/1999/xlink" style="vertical-align:-.755ex" width="30.528ex" height="2.634ex" viewBox="0 -809.3 13143.9 1134.2"><defs><path id="a" stroke-width="1" d="M139-249h-2q-12 0-18 14v486l1 486q10 13 19 13 13 0 20-15v-970q-8-14-18-14h-2z"/><path id="b" stroke-width="1" d="M222-8Q140-8 89 34T38 158q0 33 10 69 24 102 103 163t176 62q34 0 58-9t36-18 12-9h1l7 5q7 5 19 9t26 5q23 0 37-13t15-36q0-6-16-71t-34-136-21-86q-1-6-1-21 0-30 17-30 22 0 38 33 10 19 20 59 5 21 9 24t21 4h16q20 0 20-14-1-6-3-16t-14-38-24-47-38-38-54-17q-78 0-116 48Q295-8 222-8zm182 359q-21 50-80 50-24 0-54-16t-49-55q-15-34-35-110-20-84-20-114 0-34 18-48t44-15q28 0 56 14t44 27 15 19q0 3 31 125l30 123z"/><path id="c" stroke-width="1" d="M84 237v13l14 20h581q15-8 15-20t-15-20H98q-14 7-14 20z"/><path id="d" stroke-width="1" d="M220-8Q142-8 94 35T45 155v12q0 20 7 51t52 208l49 196h-9q-4 0-10 1t-12 1-11 0-10 0-5 1q-12 3-12 17 0 5 4 19t6 18q4 5 15 6t76 5q73 4 87 4 17 0 21-15 0-3-30-126l-31-124 12 5q12 6 37 12t50 6q86 0 134-45t48-122q0-50-19-101t-55-94-93-70T220-8zm165 345q0 63-67 63-49 0-92-40-12-11-15-19t-20-73q-29-119-29-155 0-69 64-69 43 0 73 32t40 59 23 80q2 7 3 11 20 77 20 111z"/><path id="e" stroke-width="1" d="M674 636q8 0 14-6t6-15-7-14q-1-1-270-129L151 346l248-118Q687 92 691 87q3-6 3-11 0-18-18-20h-6L382 192Q92 329 90 331q-7 5-7 17 1 11 13 17 8 4 286 135t283 134q4 2 9 2zM84-118q0 10 15 20h579q16-6 16-20 0-12-15-20H98q-14 7-14 20z"/><path id="f" stroke-width="1" d="M56 320v13l14 20h299v149q0 149 2 153 5 11 17 11 14 0 17-12t4-58V353h298q15-8 15-20 0-13-15-20H409V40h298q15-8 15-20T707 0H70Q56 7 56 20t14 20h299v273H70q-14 7-14 20z"/><path id="g" stroke-width="1" d="M56 237v13l14 20h299v150l1 150q10 13 19 13 13 0 20-15V270h298q15-8 15-20t-15-20H409V-68q-8-14-18-14h-4q-12 0-18 14v298H70q-14 7-14 20z"/></defs><g fill="currentColor" stroke="currentColor" stroke-width="0" transform="scale(1 -1)"><use xlink:href="#a"/><use x="278" xlink:href="#a"/><use x="557" xlink:href="#b"/><use x="1190" xlink:href="#a"/><use x="1691" xlink:href="#c"/><use x="2691" xlink:href="#a"/><use x="2970" xlink:href="#d"/><use x="3491" xlink:href="#a"/><use x="3770" xlink:href="#a"/><use x="4326" xlink:href="#e"/><use x="5382" xlink:href="#a"/><use x="5661" xlink:href="#b"/><use x="6517" xlink:href="#f"/><use x="7517" xlink:href="#d"/><use x="8039" xlink:href="#a"/><use x="8595" xlink:href="#e"/><use x="9652" xlink:href="#a"/><use x="9930" xlink:href="#b"/><use x="10564" xlink:href="#a"/><use x="11064" xlink:href="#g"/><use x="12065" xlink:href="#a"/><use x="12343" xlink:href="#d"/><use x="12865" xlink:href="#a"/></g></svg>